<svg xmlns="http://www.w3.org/2000/svg" width="1em" height="1em" viewBox="0 0 24 24"><path fill="currentColor" d="M9.385 18q-.539 0-1.015-.244t-.79-.683l-2.909-4.135q-.298-.429-.298-.938t.298-.938l2.91-4.096q.313-.439.78-.702Q8.827 6 9.385 6h9q.67 0 1.143.472q.472.472.472 1.144v8.769q0 .67-.472 1.143q-.472.472-1.143.472zM19 17V7zm-9.615 0h9q.23 0 .423-.192t.192-.424V7.616q0-.231-.192-.424T18.384 7h-9q-.288 0-.548.144q-.259.144-.413.356l-2.954 4.135q-.115.154-.115.365t.115.366L8.423 16.5q.154.212.414.356t.548.144m4.269-4.292l2.246 2.246q.14.14.344.15t.364-.15t.16-.354t-.16-.354L14.362 12l2.246-2.246q.14-.14.15-.344t-.15-.364t-.354-.16t-.354.16l-2.246 2.246l-2.246-2.246q-.14-.14-.344-.15q-.205-.01-.364.15q-.16.16-.16.354t.16.354L12.946 12L10.7 14.246q-.14.14-.15.345q-.01.203.15.363t.354.16t.354-.16z"/></svg>